<svg xmlns="http://www.w3.org/2000/svg" width="138" height="21" fill="none" viewBox="0 0 138 21">
    <path fill="#fff" d="M0 .256h7.582c1.428-.008 2.845.24 4.184.733 1.224.45 2.344 1.145 3.294 2.039.905.882 1.633 1.93 2.144 3.085.513 1.206.762 2.507.732 3.817v.052c.005 1.308-.244 2.604-.732 3.818-.493 1.166-1.223 2.217-2.144 3.085-.941.905-2.064 1.6-3.294 2.04-1.332.517-2.754.766-4.184.732H0V.257zM7.582 15.84c.82.002 1.633-.14 2.404-.418.7-.243 1.329-.656 1.83-1.202.506-.534.913-1.153 1.202-1.83.283-.752.425-1.55.418-2.353v-.053c-.002-.802-.144-1.598-.418-2.352-.255-.71-.666-1.353-1.202-1.883-.51-.535-1.137-.946-1.83-1.202-.77-.278-1.584-.42-2.404-.418H4.29v11.713l3.293-.002zM21.91.256h4.287v19.4H21.91V.257zM40.368 20.024c-1.41.008-2.81-.24-4.131-.733-1.192-.478-2.276-1.19-3.19-2.091-.929-.932-1.658-2.043-2.143-3.266-.486-1.222-.717-2.531-.68-3.846v-.052c-.014-1.33.254-2.65.784-3.87.503-1.19 1.231-2.274 2.144-3.19.907-.923 1.992-1.653 3.19-2.143 1.293-.53 2.68-.798 4.078-.785.788-.007 1.574.046 2.353.157.678.112 1.343.287 1.987.523.604.215 1.183.496 1.726.836.547.35 1.071.734 1.569 1.15l-2.667 3.243c-.366-.312-.732-.575-1.098-.837-.366-.24-.75-.45-1.15-.627-.42-.177-.858-.3-1.308-.366-.498-.107-1.007-.16-1.516-.158-.758-.005-1.508.155-2.196.471-.666.327-1.268.77-1.778 1.308-.52.563-.928 1.219-1.202 1.934-.274.754-.416 1.55-.419 2.353v.052c-.001.837.14 1.668.419 2.458.266.722.677 1.382 1.207 1.94.53.557 1.17 1 1.878 1.302.744.316 1.545.476 2.353.47 1.43.052 2.84-.35 4.026-1.15v-2.771h-4.287V8.675h8.418v8.42c-1.082.887-2.278 1.625-3.555 2.196-1.562.471-3.182.718-4.812.733zM52.92.256h4.288v19.4H52.92V.257zM62.069.256H76.66v3.818H66.253v3.92h9.15v3.818h-9.15v4.08h10.51v3.816H62.017V.256h.052zM89.94 20.024c-1.41.008-2.81-.24-4.132-.733-1.191-.478-2.276-1.19-3.19-2.091-.928-.932-1.657-2.043-2.143-3.266-.485-1.222-.717-2.531-.68-3.846v-.052c-.013-1.33.254-2.65.784-3.87.504-1.19 1.232-2.274 2.144-3.19.907-.923 1.992-1.653 3.19-2.143 1.294-.53 2.68-.798 4.079-.785.787-.007 1.574.046 2.353.157.677.112 1.342.287 1.987.523.604.215 1.183.495 1.726.836.547.35 1.07.734 1.568 1.15L94.96 5.958c-.366-.312-.733-.575-1.099-.837-.365-.24-.75-.45-1.15-.627-.419-.177-.858-.3-1.307-.366-.499-.107-1.007-.16-1.517-.158-.758-.005-1.507.155-2.196.471-.666.327-1.267.77-1.778 1.308-.52.563-.927 1.219-1.202 1.934-.274.754-.415 1.55-.418 2.353v.052c-.002.837.14 1.668.418 2.458.266.722.677 1.382 1.208 1.94.53.557 1.17 1 1.878 1.302.744.316 1.545.476 2.353.47 1.43.052 2.84-.35 4.026-1.15v-2.771h-4.288V8.675h8.418v8.42c-1.083.886-2.278 1.625-3.556 2.196-1.56.471-3.18.718-4.81.733zM111.695 20.024c-1.41.008-2.81-.24-4.131-.733-1.202-.459-2.29-1.172-3.19-2.091-.929-.932-1.658-2.043-2.144-3.266-.485-1.222-.717-2.531-.68-3.846v-.052c-.013-1.33.255-2.65.785-3.87.503-1.19 1.231-2.274 2.144-3.19.906-.923 1.992-1.653 3.189-2.143 1.294-.53 2.681-.798 4.079-.785.787-.007 1.574.046 2.353.157.677.112 1.343.287 1.987.523.604.215 1.183.496 1.726.836.547.35 1.072.734 1.569 1.15l-2.667 3.243c-.366-.312-.732-.575-1.098-.837-.366-.24-.75-.45-1.15-.627-.419-.177-.858-.3-1.307-.366-.499-.107-1.007-.16-1.517-.158-.758-.005-1.507.155-2.196.471-.665.327-1.267.77-1.778 1.308-.519.563-.927 1.219-1.202 1.934-.299.747-.441 1.548-.418 2.353v.052c-.002.837.14 1.668.418 2.458.255.725.665 1.385 1.202 1.935.539.551 1.178.995 1.883 1.307.744.316 1.545.476 2.353.47 1.43.052 2.839-.35 4.026-1.15v-2.771h-4.288V8.675h8.418v8.42c-1.082.886-2.278 1.625-3.556 2.196-1.56.471-3.18.718-4.81.733zM130.989 19.97c-1.482-.001-2.951-.267-4.34-.784-1.429-.528-2.743-1.327-3.869-2.353l2.509-3.033c.824.697 1.739 1.277 2.72 1.726.971.428 2.024.642 3.085.628.711.044 1.42-.12 2.039-.471.229-.145.416-.346.544-.584.128-.238.193-.505.188-.775v-.053c.004-.253-.05-.503-.157-.732-.135-.24-.335-.44-.575-.575-.374-.243-.778-.436-1.202-.575-.649-.234-1.313-.426-1.987-.575-.994-.262-1.883-.524-2.667-.785-.722-.28-1.407-.649-2.039-1.098-.56-.427-1.008-.983-1.307-1.62-.337-.756-.498-1.578-.471-2.404v-.053c-.011-.825.15-1.643.471-2.403.314-.716.799-1.344 1.411-1.83.627-.541 1.356-.95 2.144-1.202.88-.278 1.797-.42 2.719-.418 1.334-.013 2.659.2 3.922.627 1.192.422 2.306 1.04 3.294 1.83l-2.196 3.19c-.815-.539-1.672-1.011-2.563-1.412-.791-.347-1.646-.526-2.51-.523-.661-.047-1.32.118-1.882.47-.193.136-.352.316-.461.525-.109.209-.166.442-.166.678v.052c-.004.287.05.571.157.837.152.259.368.475.627.627.406.242.847.419 1.307.523.523.158 1.255.366 2.092.575.892.233 1.766.53 2.614.89.699.286 1.351.673 1.936 1.151.504.435.913.969 1.201 1.569.289.695.432 1.443.419 2.196v.052c.033.844-.129 1.684-.474 2.455-.344.77-.862 1.452-1.513 1.99-.661.536-1.427.928-2.249 1.15-.873.376-1.82.553-2.771.518z"/>
</svg>
