<svg xmlns="http://www.w3.org/2000/svg" width="86" height="86" fill="none" viewBox="0 0 86 86">
    <path fill="#85B0F2" d="M71.667 64.5c3.941 0 7.13-3.225 7.13-7.167l.036-35.833c0-3.977-3.225-7.167-7.166-7.167H14.333c-3.977 0-7.166 3.19-7.166 7.167v35.833c0 3.942 3.189 7.167 7.166 7.167H0v7.167h86V64.5H71.667zm-57.334-7.167V21.5h57.334v35.869l-57.334-.036zm18.264-21.668c0-3.68 2.995-6.68 6.679-6.68 3.68 0 6.68 3 6.68 6.68 0 3.68-3 6.68-6.68 6.68-3.684 0-6.68-3-6.68-6.68zm25.197 15.18l-8.893-8.895c1.186-1.81 1.888-3.966 1.888-6.285 0-6.35-5.163-11.513-11.513-11.513s-11.517 5.164-11.517 11.513c0 6.35 5.167 11.517 11.517 11.517 2.279 0 4.39-.688 6.177-1.831l8.92 8.915 3.422-3.422z"/>
</svg>
